<?xml version="1.0" encoding="UTF-8" standalone="no"?>
<!-- Created with Inkscape (http://www.inkscape.org/) -->

<svg
   width="180.16862mm"
   height="59.031788mm"
   viewBox="0 0 180.16862 59.031788"
   version="1.1"
   id="svg1"
   xml:space="preserve"
   xmlns="http://www.w3.org/2000/svg"
   xmlns:svg="http://www.w3.org/2000/svg"><defs
     id="defs1" /><g
     id="layer1"
     transform="translate(-14.483634,-8.3185298)"><g
       id="text1"
       style="font-size:28.5611px;line-height:1.25;font-family:'Cherry Swash';-inkscape-font-specification:'Cherry Swash, Normal';stroke-width:0.714029"
       transform="scale(0.99865271,1.0013491)"
       aria-label="&#10;Positivity"><path
         d="m 71.894993,52.807659 c 0.999639,0.428416 2.027838,0.656905 3.684382,0.656905 3.570137,0 6.397686,-2.227766 6.397686,-6.254881 0,-3.855748 -2.970354,-6.683297 -10.082068,-6.683297 -8.139913,0 -11.110268,2.627621 -11.110268,6.112075 0,2.027838 0.999639,4.112798 3.712943,4.112798 2.798988,0 3.655821,-2.227765 3.655821,-4.398409 h -2.284888 c 0,1.256688 -0.314172,2.256327 -1.342372,2.256327 -0.999638,0 -1.456616,-0.885394 -1.456616,-1.970716 0,-2.113521 1.5423,-3.541576 6.397687,-3.88431 v 15.908533 h -2.770427 v 2.142083 h 8.539769 v -2.142083 h -3.341649 z m 0,-10.139191 c 5.740781,0 7.654375,1.799349 7.654375,4.541215 0,2.456255 -1.856472,4.112798 -3.969993,4.112798 -1.542299,0 -2.770427,-0.199927 -3.684382,-0.628344 z"
         id="path11" /><path
         d="m 83.97635,53.664492 c 0,4.112798 2.370571,7.425886 6.854664,7.425886 4.484092,0 6.854664,-3.313088 6.854664,-7.425886 0,-4.112799 -2.370572,-7.425886 -6.854664,-7.425886 -4.484093,0 -6.854664,3.313087 -6.854664,7.425886 z m 2.427693,0 c 0,-2.941794 1.5423,-5.283804 4.426971,-5.283804 2.884671,0 4.42697,2.34201 4.42697,5.283804 0,2.941793 -1.542299,5.283803 -4.42697,5.283803 -2.884671,0 -4.426971,-2.34201 -4.426971,-5.283803 z m 13.423696,3.027476 v 3.284527 c 1.342371,0.799711 3.427331,1.085322 4.798261,1.085322 3.19885,0 5.45517,-1.513739 5.45517,-3.912871 0,-1.913594 -1.42805,-2.798988 -4.42697,-4.455532 -2.51337,-1.399494 -3.2274,-1.656544 -3.2274,-2.541938 0,-0.771149 0.57122,-1.770788 2.5705,-1.770788 0.74259,0 1.79935,0.142806 2.7133,0.5141 v 1.913594 h 1.99928 v -3.398771 c -1.31381,-0.714028 -3.19884,-1.171005 -4.79827,-1.171005 -2.7133,0 -4.912504,1.285249 -4.912504,3.741504 0,1.970716 1.399494,2.827549 4.227044,4.341287 2.79899,1.485177 3.42733,1.885033 3.42733,2.741866 0,1.142444 -1.14244,1.856471 -3.0846,1.856471 -0.85683,0 -2.02784,-0.142805 -2.74186,-0.428416 v -1.79935 z m 12.566861,-8.31128 h 2.1992 v 10.567607 h -2.22776 v 1.856472 h 7.14027 V 58.948295 H 117.0215 V 46.524217 h -4.6269 z m 1.91359,-5.912148 c 0,0.77115 0.54266,1.513739 1.45662,1.513739 0.79971,0 1.48518,-0.714028 1.48518,-1.656544 0,-0.742589 -0.5141,-1.513738 -1.45662,-1.513738 -0.79971,0 -1.48518,0.714027 -1.48518,1.656543 z m 6.48339,5.912148 h 2.48481 v 9.225235 c 0,1.856472 0.85684,3.484455 3.4559,3.484455 1.31381,0 2.34201,-0.285611 3.51301,-1.0282 l -0.94251,-1.627983 c -0.77115,0.314172 -1.34238,0.542661 -1.97072,0.542661 -1.39949,0 -1.62798,-0.656905 -1.62798,-1.82791 v -8.768258 h 4.2556 v -1.856471 h -4.2556 v -3.770066 h -1.19957 c -0.25705,1.28525 -0.68547,2.484816 -1.22813,3.770066 h -0.28561 l -2.1992,0.285611 z m 11.19596,0 h 2.1992 v 10.567607 h -2.22776 v 1.856472 h 7.14027 v -1.856472 h -2.48481 V 46.524217 h -4.6269 z m 1.91359,-5.912148 c 0,0.77115 0.54266,1.513739 1.45662,1.513739 0.79971,0 1.48517,-0.714028 1.48517,-1.656544 0,-0.742589 -0.5141,-1.513738 -1.45661,-1.513738 -0.79971,0 -1.48518,0.714027 -1.48518,1.656543 z m 15.25164,5.912148 h 1.82791 l -3.31309,9.710774 -3.31309,-9.710774 h 1.79935 v -1.856471 h -6.05495 v 1.856471 h 1.77079 l 4.54121,12.424079 h 2.51338 l 4.51265,-12.424079 h 1.77079 v -1.856471 h -6.05495 z m 7.51156,0 h 2.19921 v 10.567607 h -2.22777 v 1.856472 h 7.14028 v -1.856472 h -2.48482 V 46.524217 h -4.6269 z m 1.9136,-5.912148 c 0,0.77115 0.54266,1.513739 1.45661,1.513739 0.79971,0 1.48518,-0.714028 1.48518,-1.656544 0,-0.742589 -0.5141,-1.513738 -1.45662,-1.513738 -0.79971,0 -1.48517,0.714027 -1.48517,1.656543 z m 6.48339,5.912148 h 2.48481 v 9.225235 c 0,1.856472 0.85683,3.484455 3.45589,3.484455 1.31381,0 2.34201,-0.285611 3.51302,-1.0282 l -0.94252,-1.627983 c -0.77115,0.314172 -1.34237,0.542661 -1.97071,0.542661 -1.3995,0 -1.62799,-0.656905 -1.62799,-1.82791 v -8.768258 h 4.25561 v -1.856471 h -4.25561 v -3.770066 h -1.19956 c -0.25705,1.28525 -0.68547,2.484816 -1.22813,3.770066 h -0.28561 l -2.1992,0.285611 z m 10.31056,0 h 1.77079 l 4.68402,12.823934 c -0.82827,2.427694 -2.08496,3.88431 -3.77007,3.88431 -0.48553,0 -1.22812,-0.114245 -1.99927,-0.342734 l -0.68547,1.999277 c 1.08532,0.371295 2.08496,0.5141 2.85611,0.5141 3.39877,0 4.82683,-2.827549 6.05495,-6.454808 l 4.14136,-12.424079 h 1.34237 v -1.856471 h -5.14099 v 1.856471 h 1.31381 l -2.99892,9.682213 -3.19884,-9.682213 h 1.0282 v -1.856471 h -5.39805 z"
         id="path12" /></g><path
       d="m 67.846558,12.328598 c -4.769704,0 -7.340203,2.627622 -7.340203,6.112076 0,2.027838 0.999639,4.112798 3.712943,4.112798 2.798988,0 3.655821,-2.227766 3.655821,-4.398409 h -2.284888 c 0,1.256688 -0.314172,2.256327 -1.342372,2.256327 -0.999638,0 -1.456616,-0.885394 -1.456616,-1.970716 0,-2.456255 2.170644,-3.969993 4.826826,-3.969993 0.5141,0 1.0282,0.05712 1.5423,0.171366 v 15.82285 h -2.770427 v 2.142082 h 7.682936 V 30.464897 H 71.588062 V 16.498519 l 10.082068,16.10846 h 2.427694 V 14.756292 h 2.770427 v -2.142083 h -7.682936 v 2.142083 H 81.67013 V 28.322814 L 73.987194,15.955858 c -1.627982,-2.627621 -3.084598,-3.62726 -6.140636,-3.62726 z m 29.160899,18.42191 c 0,1.456616 0.599783,1.999277 2.113521,1.999277 0.913952,0 1.913592,-0.199928 2.656182,-0.656905 v -1.199567 h -2.34201 v -8.082791 c 0,-2.85611 -1.770788,-4.769704 -4.855387,-4.769704 -1.399494,0 -4.112798,0.399856 -5.96927,1.171005 v 3.398771 h 1.999277 v -1.913593 c 1.28525,-0.371295 3.198844,-0.5141 3.88431,-0.5141 2.199205,0 2.513377,1.542299 2.513377,2.627621 v 1.456616 h -3.11316 c -4.084237,0 -5.883587,2.056399 -5.883587,4.598337 0,2.313449 1.513739,4.027115 4.198482,4.027115 2.142082,0 3.684382,-1.028199 4.798265,-2.142082 z m -4.541215,0 c -1.399494,0 -2.027838,-0.913955 -2.027838,-2.08496 0,-1.428055 0.971077,-2.513377 3.427332,-2.513377 h 3.141721 v 1.82791 c -0.971078,1.28525 -2.570499,2.770427 -4.541215,2.770427 z M 102.63397,20.182901 h 2.48482 v 9.225235 c 0,1.856472 0.85683,3.484454 3.45589,3.484454 1.31381,0 2.34201,-0.285611 3.51302,-1.028199 l -0.94252,-1.627983 c -0.77115,0.314172 -1.34237,0.542661 -1.97071,0.542661 -1.3995,0 -1.62799,-0.656905 -1.62799,-1.82791 v -8.768258 h 4.25561 v -1.856472 h -4.25561 v -3.770065 h -1.19956 c -0.25705,1.28525 -0.68547,2.484816 -1.22813,3.770065 h -0.28561 l -2.19921,0.285611 z m 11.19596,0 h 2.19921 v 10.567607 h -2.22777 v 1.856471 h 7.14028 v -1.856471 h -2.48482 V 18.326429 h -4.6269 z m 1.9136,-5.912148 c 0,0.77115 0.54266,1.513738 1.45661,1.513738 0.79971,0 1.48518,-0.714027 1.48518,-1.656543 0,-0.742589 -0.5141,-1.513739 -1.45662,-1.513739 -0.79971,0 -1.48517,0.714028 -1.48517,1.656544 z m 6.9118,11.195951 c 0,4.112799 2.37057,7.425886 6.85466,7.425886 4.48409,0 6.85467,-3.313087 6.85467,-7.425886 0,-4.112798 -2.37058,-7.425886 -6.85467,-7.425886 -4.48409,0 -6.85466,3.313088 -6.85466,7.425886 z m 2.42769,0 c 0,-2.941793 1.5423,-5.283803 4.42697,-5.283803 2.88467,0 4.42697,2.34201 4.42697,5.283803 0,2.941794 -1.5423,5.283804 -4.42697,5.283804 -2.88467,0 -4.42697,-2.34201 -4.42697,-5.283804 z m 17.47937,-3.570137 c 1.45662,-0.77115 3.31309,-1.713666 4.94107,-1.713666 1.99928,0 2.22777,1.456616 2.22777,3.341649 v 7.225958 c 0,1.399494 0.59978,1.999277 1.99928,1.999277 1.08532,0 2.02783,-0.199928 2.77042,-0.656905 v -1.199567 h -2.34201 V 23.52455 c 0,-2.998916 -0.77115,-5.483732 -4.31272,-5.483732 -2.28489,0 -4.1128,1.0282 -5.48373,1.79935 l -0.34274,-1.513739 h -4.08423 v 1.856472 h 2.1992 v 10.567607 h -2.1992 v 1.856471 h 7.11171 v -1.856471 h -2.48482 z m 32.98808,2.541938 c 2.79898,0 3.65582,-2.227766 3.65582,-4.39841 h -2.28489 c 0,1.256689 -0.31417,2.256327 -1.34237,2.256327 -0.99964,0 -1.45662,-0.885394 -1.45662,-1.970716 0,-1.913593 1.51374,-3.141721 3.05604,-3.141721 1.37093,0 3.17028,0.999639 3.17028,5.426609 0,4.65546 -2.54194,8.139914 -6.56905,8.139914 -4.02712,0 -6.56905,-3.484454 -6.56905,-8.139914 0,-4.655459 2.54193,-8.139913 6.56905,-8.139913 v -2.142083 c -5.76934,0 -9.13955,4.455532 -9.13955,10.281996 0,5.826465 3.37021,10.281996 9.13955,10.281996 5.76934,0 9.13955,-4.42697 9.13955,-10.339118 0,-5.855025 -3.28453,-7.511569 -5.74078,-7.511569 -2.74187,0 -5.34093,2.056399 -5.34093,5.283803 0,2.027838 0.99964,4.112799 3.71295,4.112799 z m 17.36512,-9.425163 h 1.99928 v -3.827188 l -0.19993,-0.02856 c -0.82827,-0.114244 -1.6851,-0.199927 -2.51337,-0.199927 -4.31273,0 -5.48374,2.370571 -5.48374,6.054953 v 1.31381 l -2.1992,0.285611 v 1.570861 h 2.1992 v 10.567607 h -2.22776 v 1.856471 h 7.14027 v -1.856471 h -2.48481 V 20.182901 h 4.54121 v -1.856472 h -4.54121 v -1.31381 c 0,-2.570499 0.48554,-3.912871 3.05604,-3.912871 0.19992,0 0.45697,0.02856 0.71402,0.02856 z"
       id="text1-8"
       style="font-size:28.5611px;line-height:1.25;font-family:'Cherry Swash';-inkscape-font-specification:'Cherry Swash, Normal';stroke-width:0.714029"
       transform="scale(0.99865271,1.0013491)"
       aria-label="Nation Of" /><g
       id="g10"
       transform="translate(3.5996626,-141.82745)"><path
         style="fill:#408fd4;fill-opacity:1;stroke:none;stroke-width:0.264583px;stroke-linecap:butt;stroke-linejoin:miter;stroke-opacity:1"
         d="m 52.01935,202.55541 c 0,0 1.076599,-8.50441 -5.96924,-9.98312 -8.136687,-1.64485 -9.399165,-3.01859 -4.795441,-7.95801 4.187615,-3.70443 4.500405,-9.35565 4.00829,-13.32036 -0.283063,-2.28049 -1.548223,-5.36668 -2.835915,-7.13086 -2.629174,-3.60205 -5.482861,-3.9956 -9.030596,-4.03843 -5.57292,0.15908 -7.44515,2.25614 -9.316983,4.11863 -1.291937,1.76107 -2.552852,4.85037 -2.835915,7.13086 -0.492115,3.96471 -0.179325,9.61593 4.00829,13.32036 4.890703,5.02287 3.538293,6.34394 -4.795441,7.95801 -7.045839,1.47871 -5.96924,10.2001 -5.96924,10.2001 12.512264,0.30573 25.020604,0.0934 37.532195,-0.0802 z"
         id="path5" /><path
         style="fill:#ffffff;fill-opacity:1;stroke:none;stroke-width:0.264583px;stroke-linecap:butt;stroke-linejoin:miter;stroke-opacity:1"
         d="m 33.282641,171.8407 c 1.130599,-1.9499 1.928779,-1.88391 2.825885,-1.79421 0.897107,0.0897 1.928148,0.50493 1.914035,2.28762 -0.01114,1.40728 -0.486413,1.77879 -0.927219,2.28762 -1.611416,1.86008 -3.811808,3.34905 -3.811808,3.34905 -0.762716,-0.5177 -2.322696,-1.69691 -3.875101,-3.36386 -0.457923,-0.49171 -0.895355,-0.86318 -0.892984,-2.2705 0.003,-1.78269 0.982693,-2.21503 1.8798,-2.30474 0.897106,-0.0897 1.695286,-0.15569 2.825885,1.79421 z"
         id="path7" /><path
         style="fill:none;fill-opacity:1;stroke:#408fd4;stroke-width:1.765;stroke-linecap:round;stroke-linejoin:miter;stroke-dasharray:none;stroke-opacity:1"
         d="M 11.766472,174.52088 17.658,174.41376"
         id="path8" /><path
         style="fill:none;fill-opacity:1;stroke:#408fd4;stroke-width:1.765;stroke-linecap:round;stroke-linejoin:miter;stroke-dasharray:none;stroke-opacity:1"
         d="m 13.260861,163.93914 5.498976,2.11728"
         id="path8-5" /><path
         style="fill:none;stroke:#000000;stroke-width:1.765;stroke-linecap:round;stroke-linejoin:miter;stroke-dasharray:none;stroke-opacity:1"
         d="m 21.928949,153.9623 3.290072,4.88848"
         id="path8-5-8" /><path
         style="fill:none;fill-opacity:1;stroke:#408fd4;stroke-width:1.765;stroke-linecap:round;stroke-linejoin:miter;stroke-dasharray:none;stroke-opacity:1"
         d="m 21.928949,153.9623 3.290072,4.88848"
         id="path9" /><path
         style="fill:none;fill-opacity:1;stroke:#408fd4;stroke-width:1.765;stroke-linecap:round;stroke-linejoin:miter;stroke-dasharray:none;stroke-opacity:1"
         d="m 33.946477,151.02848 -0.006,5.89254"
         id="path9-8" /><path
         style="fill:none;fill-opacity:1;stroke:#408fd4;stroke-width:1.765;stroke-linecap:round;stroke-linejoin:miter;stroke-dasharray:none;stroke-opacity:1"
         d="m 46.086994,154.54999 -3.4684,4.76364"
         id="path9-8-6" /><path
         style="fill:none;fill-opacity:1;stroke:#408fd4;stroke-width:1.765;stroke-linecap:round;stroke-linejoin:miter;stroke-dasharray:none;stroke-opacity:1"
         d="m 52.792563,163.79192 -5.465718,2.20184"
         id="path9-8-6-2" /><path
         style="fill:none;fill-opacity:1;stroke:#408fd4;stroke-width:1.765;stroke-linecap:round;stroke-linejoin:miter;stroke-dasharray:none;stroke-opacity:1"
         d="m 54.460778,174.34309 -5.889166,0.19966"
         id="path9-8-6-2-5" /></g></g></svg>
